<?xml version="1.0" encoding="UTF-8" standalone="no"?>
<!DOCTYPE svg PUBLIC "-//W3C//DTD SVG 1.1//EN" "http://www.w3.org/Graphics/SVG/1.1/DTD/svg11.dtd">
<svg width="100%" height="100%" viewBox="0 0 512 512" version="1.1" xmlns="http://www.w3.org/2000/svg" xmlns:xlink="http://www.w3.org/1999/xlink" xml:space="preserve" xmlns:serif="http://www.serif.com/" style="fill-rule:evenodd;clip-rule:evenodd;stroke-linejoin:round;stroke-miterlimit:2;">
    <g transform="matrix(2.69138,0,0,2.78911,-568.693,-529.079)">
        <rect x="211.302" y="189.695" width="190.237" height="183.571"/>
        <path d="M401.539,189.695L401.539,373.266L211.302,373.266L211.302,189.695L401.539,189.695ZM392.622,198.3L220.219,198.3L220.219,364.661L392.622,364.661L392.622,198.3Z" style="fill:white;"/>
    </g>
    <g transform="matrix(0.854503,0,0,0.854349,37.2921,37.25)">
        <g transform="matrix(6.80928,0,0,7.0843,-1542.04,-1419.58)">
            <path d="M266.344,253.839C261.251,253.939 254.669,252.206 251.779,249.331C248.889,246.455 247.443,242.423 247.443,237.233C247.443,231.863 248.904,227.695 251.826,224.73C254.748,221.764 258.538,220.282 263.196,220.282C267.706,220.282 271.39,221.734 274.248,224.64C277.107,227.545 278.536,231.633 278.536,236.903C278.536,237.223 278.525,237.704 278.504,238.345L253.351,238.345C253.562,241.852 254.611,244.537 256.495,246.4C258.379,248.264 262.393,249.259 266.119,249.302L266.11,249.301C267.232,249.301 274.478,249.549 280.024,245.753C282.414,244.118 284.349,242.001 285.757,239.306C287.165,236.611 287.869,233.831 287.869,230.965C287.869,227.619 286.964,224.493 285.153,221.588C283.343,218.683 280.643,216.358 277.055,214.615C273.466,212.872 269.501,212 265.161,212C260.206,212 255.681,213.097 251.584,215.291C247.487,217.485 244.311,220.631 242.056,224.729C239.801,228.826 238.673,233.22 238.673,237.908C238.673,242.818 239.801,247.045 242.056,250.592C244.311,254.139 247.571,256.758 251.838,258.452C256.104,260.145 260.831,260.991 266.018,260.991C271.566,260.991 276.213,260.11 279.961,258.346C283.708,256.583 286.514,254.439 288.377,251.914L294.125,251.914C293.046,254.018 291.193,256.162 288.567,258.346C285.942,260.531 282.819,262.259 279.198,263.531C275.578,264.803 271.216,265.44 266.114,265.44C261.413,265.44 257.078,264.869 253.108,263.726C249.138,262.584 245.756,260.866 242.961,258.572C240.166,256.278 238.059,253.638 236.641,250.652C234.862,246.865 233.973,242.777 233.973,238.389C233.973,233.5 235.032,228.841 237.149,224.413C239.732,218.983 243.4,214.825 248.154,211.94C252.907,209.055 258.671,207.612 265.447,207.612C270.697,207.612 275.414,208.629 279.595,210.663C283.777,212.696 287.075,215.727 289.488,219.755C291.542,223.221 292.569,226.988 292.569,231.056C292.569,236.866 289.054,244.667 283.917,248.318C278.102,252.451 273.64,253.696 266.344,253.839Z" style="fill:white;fill-rule:nonzero;"/>
        </g>
        <g transform="matrix(7.30014,0,0,8.24433,-1555.64,-1658.22)">
            <path d="M238.476,229.933L256.043,229.933C255.806,227.626 255.134,225.895 254.028,224.742C252.33,222.951 250.128,222.056 247.422,222.056C244.973,222.056 242.914,222.77 241.246,224.199C239.577,225.629 238.654,227.54 238.476,229.933Z" style="fill-rule:nonzero;"/>
        </g>
    </g>
</svg>
