<?xml version="1.0" encoding="UTF-8" standalone="no"?><!DOCTYPE svg PUBLIC "-//W3C//DTD SVG 1.1//EN" "http://www.w3.org/Graphics/SVG/1.1/DTD/svg11.dtd"><svg width="100%" height="100%" viewBox="0 0 512 512" version="1.1" xmlns="http://www.w3.org/2000/svg" xmlns:xlink="http://www.w3.org/1999/xlink" xml:space="preserve" xmlns:serif="http://www.serif.com/" style="fill-rule:evenodd;clip-rule:evenodd;stroke-linejoin:round;stroke-miterlimit:2;"><g><path d="M270.898,363.597c9.177,0.009 66.753,1.978 110.848,-29.565c19.052,-13.623 34.477,-31.261 45.702,-53.715c11.224,-22.453 16.837,-45.616 16.837,-69.494c0,-27.878 -7.215,-53.923 -21.652,-78.125c-14.429,-24.205 -35.952,-43.576 -64.555,-58.097c-28.611,-14.523 -60.22,-21.787 -94.816,-21.787c-39.5,-0 -75.573,9.139 -108.234,27.418c-32.659,18.281 -57.978,44.493 -75.954,78.636c-17.977,34.134 -26.969,70.743 -26.969,109.802c0,40.909 8.992,76.125 26.969,105.678c17.976,29.553 43.965,51.373 77.979,65.487c34.008,14.106 71.691,21.154 113.04,21.154c44.228,-0 81.272,-7.34 111.15,-22.038c29.872,-14.688 52.239,-32.551 67.091,-53.588l45.821,-0c-8.601,17.529 -23.373,35.393 -44.306,53.588c-20.926,18.206 -45.822,32.603 -74.688,43.2c-28.857,10.598 -63.631,15.905 -104.302,15.905c-37.476,-0 -72.033,-4.758 -103.681,-14.279c-31.648,-9.515 -58.608,-23.83 -80.89,-42.942c-22.281,-19.113 -39.077,-41.109 -50.381,-65.986c-14.181,-31.553 -21.269,-65.613 -21.269,-102.172c0,-40.733 8.443,-79.551 25.319,-116.443c20.591,-45.241 49.83,-79.884 87.729,-103.92c37.889,-24.037 83.838,-36.059 137.856,-36.059c41.851,-0 79.453,8.473 112.784,25.42c33.338,16.937 59.629,42.19 78.865,75.751c16.374,28.876 24.561,60.262 24.561,94.156c0,48.406 -28.022,113.402 -68.972,143.82c-46.355,34.435 -81.926,44.807 -140.088,45.999c-40.6,0.833 -93.07,-13.606 -116.109,-37.559c-23.039,-23.962 -34.565,-57.555 -34.565,-100.796c0,-44.741 11.647,-79.468 34.941,-104.17c23.292,-24.712 53.506,-37.06 90.637,-37.06c35.954,-0 65.322,12.097 88.105,36.31c22.791,24.202 34.183,58.263 34.183,102.17c-0,2.666 -0.088,6.674 -0.255,12.015l-200.514,-0c1.683,29.219 10.044,51.589 25.063,67.112c15.007,15.516 46.967,23.802 76.649,24.172l0.071,0.002Zm-99.243,-128.337l150.136,0c-2.025,-22.369 -7.769,-39.152 -17.221,-50.331c-14.513,-17.366 -33.332,-26.044 -56.458,-26.044c-20.929,0 -38.526,6.923 -52.782,20.778c-14.265,13.865 -22.152,32.394 -23.675,55.597Z" style="fill-rule:nonzero;"/></g></svg>