<?xml version="1.0" encoding="UTF-8" standalone="no"?>
<!DOCTYPE svg PUBLIC "-//W3C//DTD SVG 1.1//EN" "http://www.w3.org/Graphics/SVG/1.1/DTD/svg11.dtd">
<svg width="100%" height="100%" viewBox="0 0 512 512" version="1.1" xmlns="http://www.w3.org/2000/svg" xmlns:xlink="http://www.w3.org/1999/xlink" xml:space="preserve" xmlns:serif="http://www.serif.com/" style="fill-rule:evenodd;clip-rule:evenodd;stroke-linecap:round;stroke-linejoin:round;stroke-miterlimit:1.5;">
    <g transform="matrix(1.04292,0,0,1.03468,-6.86045,-7.99183)">
        <rect x="6.578" y="7.724" width="490.93" height="494.841" style="stroke:white;stroke-width:44.12px;"/>
    </g>
    <g transform="matrix(9.48863,0,0,9.6924,-2043.17,-2015.93)">
        <path d="M245.739,234.451C245.739,233.118 245.439,232.018 244.839,231.151C244.239,230.285 243.306,229.851 242.039,229.851C240.506,229.851 239.289,230.451 238.389,231.651C237.489,232.851 237.039,234.318 237.039,236.051C237.039,236.585 237.089,237.118 237.189,237.651C237.289,238.185 237.464,238.66 237.714,239.076C237.964,239.493 238.314,239.835 238.764,240.101C239.214,240.368 239.789,240.501 240.489,240.501C241.522,240.501 242.381,240.318 243.064,239.951C243.747,239.585 244.289,239.11 244.689,238.526C245.089,237.943 245.364,237.293 245.514,236.576C245.664,235.86 245.739,235.151 245.739,234.451ZM250.389,235.801C250.289,236.268 250.189,236.818 250.089,237.451C249.989,238.085 249.939,238.635 249.939,239.101C249.939,239.468 250.031,239.793 250.214,240.076C250.397,240.36 250.756,240.501 251.289,240.501C251.822,240.501 252.347,240.36 252.864,240.076C253.381,239.793 253.839,239.343 254.239,238.726C254.639,238.11 254.964,237.335 255.214,236.401C255.464,235.468 255.589,234.351 255.589,233.051C255.589,231.051 255.264,229.293 254.614,227.776C253.964,226.26 253.064,224.985 251.914,223.951C250.764,222.918 249.389,222.143 247.789,221.626C246.189,221.11 244.439,220.851 242.539,220.851C240.472,220.851 238.589,221.201 236.889,221.901C235.189,222.601 233.731,223.585 232.514,224.851C231.297,226.118 230.356,227.618 229.689,229.351C229.022,231.085 228.689,232.968 228.689,235.001C228.689,237.201 229.056,239.168 229.789,240.901C230.522,242.635 231.547,244.101 232.864,245.301C234.181,246.501 235.739,247.426 237.539,248.076C239.339,248.726 241.289,249.051 243.389,249.051C245.289,249.051 247.031,248.785 248.614,248.251C250.197,247.718 251.606,246.968 252.839,246.001L258.339,246.001C256.539,248.468 254.297,250.343 251.614,251.626C248.931,252.91 246.056,253.551 242.989,253.551C240.322,253.551 237.814,253.093 235.464,252.176C233.114,251.26 231.056,249.985 229.289,248.351C227.522,246.718 226.131,244.76 225.114,242.476C224.097,240.193 223.589,237.701 223.589,235.001C223.589,232.335 224.089,229.868 225.089,227.601C226.089,225.335 227.456,223.368 229.189,221.701C230.922,220.035 232.947,218.726 235.264,217.776C237.581,216.826 240.056,216.351 242.689,216.351C244.889,216.351 247.047,216.71 249.164,217.426C251.281,218.143 253.172,219.201 254.839,220.601C256.506,222.001 257.847,223.726 258.864,225.776C259.881,227.826 260.389,230.168 260.389,232.801C260.389,234.568 260.181,236.101 259.764,237.401C259.347,238.701 258.814,239.801 258.164,240.701C257.514,241.601 256.781,242.335 255.964,242.901C255.147,243.468 254.331,243.901 253.514,244.201C252.697,244.501 251.914,244.71 251.164,244.826C250.414,244.943 249.789,245.001 249.289,245.001C247.889,245.001 246.889,244.718 246.289,244.151C245.689,243.585 245.372,242.968 245.339,242.301L245.239,242.301C244.572,242.968 243.739,243.585 242.739,244.151C241.739,244.718 240.439,245.001 238.839,245.001C237.772,245.001 236.797,244.793 235.914,244.376C235.031,243.96 234.272,243.385 233.639,242.651C233.006,241.918 232.514,241.035 232.164,240.001C231.814,238.968 231.639,237.835 231.639,236.601C231.639,235.135 231.872,233.726 232.339,232.376C232.806,231.026 233.464,229.826 234.314,228.776C235.164,227.726 236.206,226.893 237.439,226.276C238.672,225.66 240.072,225.351 241.639,225.351C242.972,225.351 244.081,225.568 244.964,226.001C245.847,226.435 246.539,227.168 247.039,228.201L247.139,228.201L247.539,225.951L252.239,225.951L250.389,235.801Z" style="fill:white;fill-rule:nonzero;"/>
    </g>
</svg>
